<svg width="1320" height="374" viewBox="0 0 1320 374" fill="none" xmlns="http://www.w3.org/2000/svg">
<g style="mix-blend-mode:overlay">
<path d="M0 302.935V0.717041H57.7689V182.843L124.701 94.9612H186.056L110.359 189.603L192.032 302.935H126.693L57.7689 204.714V302.935H0Z" fill="white"/>
<path d="M284.173 307.309C222.021 307.309 174.611 265.953 174.611 201.135V197.954C174.611 132.738 222.021 90.1893 284.571 90.1893C347.121 90.1893 394.133 131.943 394.133 196.761V199.942C394.133 265.555 346.723 307.309 284.173 307.309ZM284.571 263.567C316.842 263.567 335.567 239.707 335.567 200.34V197.556C335.567 157.791 316.842 133.931 284.571 133.931C252.699 133.931 233.575 156.995 233.575 196.761V199.942C233.575 239.707 251.902 263.567 284.571 263.567Z" fill="white"/>
<path d="M408.958 302.935V94.9612H466.727V134.727C479.874 106.891 500.193 92.1776 534.058 91.78V145.463C491.428 145.066 466.727 158.984 466.727 198.749V302.935H408.958Z" fill="white"/>
<path d="M548.073 373.717V94.9612H605.842V127.569C617.396 107.686 641.699 90.1893 672.376 90.1893C723.372 90.1893 763.213 127.967 763.213 196.761V199.942C763.213 268.736 724.169 307.309 672.376 307.309C640.105 307.309 616.599 291.403 605.842 271.122V373.717H548.073ZM655.245 262.374C687.117 262.374 704.647 240.9 704.647 200.34V197.158C704.647 155.007 683.93 134.329 654.846 134.329C624.567 134.329 603.85 155.405 603.85 197.158V200.34C603.85 242.093 623.771 262.374 655.245 262.374Z" fill="white"/>
<path d="M847.165 307.309C806.527 307.309 776.248 283.449 776.248 228.971V94.9612H833.619V221.018C833.619 249.251 845.173 262.771 869.874 262.771C894.177 262.771 913.3 247.661 913.3 217.041V94.9612H970.671V302.935H913.3V270.327C902.543 291.403 881.428 307.309 847.165 307.309Z" fill="white"/>
<path d="M1073.58 307.309C1017.41 307.309 984.736 282.654 982.744 237.719H1036.53C1038.92 256.409 1048.08 267.146 1073.18 267.146C1095.49 267.146 1105.85 258.795 1105.85 244.479C1105.85 230.164 1093.5 224.199 1063.62 219.825C1008.24 211.474 986.728 195.568 986.728 155.007C986.728 111.663 1026.57 90.1893 1069.2 90.1893C1115.41 90.1893 1150.07 106.891 1155.25 154.609H1102.27C1099.08 137.51 1089.52 129.557 1069.6 129.557C1050.87 129.557 1040.11 138.306 1040.11 151.03C1040.11 164.153 1050.07 169.323 1080.35 173.697C1132.55 181.252 1161.23 194.375 1161.23 238.912C1161.23 283.847 1128.56 307.309 1073.58 307.309Z" fill="white"/>
<path d="M1304.49 229.374C1304.49 220.604 1303.07 212.543 1300.23 205.192C1297.39 197.841 1293.45 191.521 1288.41 186.233C1283.37 180.946 1277.49 176.883 1270.77 174.046C1264.05 171.08 1256.81 169.596 1249.06 169.596C1241.18 169.596 1233.82 171.08 1226.97 174.046C1220.25 176.883 1214.37 180.946 1209.33 186.233C1204.29 191.521 1200.35 197.841 1197.51 205.192C1194.66 212.543 1193.24 220.604 1193.24 229.374C1193.24 237.628 1194.53 245.366 1197.12 252.588C1199.7 259.81 1203.39 266.13 1208.17 271.547C1213.08 276.963 1218.96 281.284 1225.8 284.508C1232.65 287.603 1240.4 289.151 1249.06 289.151C1256.81 289.151 1264.05 287.732 1270.77 284.895C1277.49 281.929 1283.37 277.802 1288.41 272.514C1293.45 267.226 1297.39 260.971 1300.23 253.749C1303.07 246.398 1304.49 238.272 1304.49 229.374ZM1320 229.374C1320 240.207 1318.06 250.073 1314.19 258.972C1310.44 267.871 1305.27 275.48 1298.68 281.8C1292.22 288.119 1284.66 293.02 1276 296.502C1267.47 299.984 1258.49 301.725 1249.06 301.725C1238.6 301.725 1228.97 299.92 1220.18 296.309C1211.53 292.568 1204.03 287.474 1197.7 281.026C1191.5 274.577 1186.59 266.968 1182.97 258.198C1179.48 249.299 1177.74 239.691 1177.74 229.374C1177.74 218.54 1179.61 208.674 1183.36 199.775C1187.23 190.876 1192.4 183.267 1198.86 176.948C1205.45 170.628 1213.08 165.727 1221.73 162.245C1230.39 158.763 1239.5 157.022 1249.06 157.022C1258.49 157.022 1267.47 158.763 1276 162.245C1284.66 165.727 1292.22 170.628 1298.68 176.948C1305.27 183.267 1310.44 190.876 1314.19 199.775C1318.06 208.674 1320 218.54 1320 229.374ZM1249.45 225.311C1251.9 225.311 1254.23 225.247 1256.43 225.118C1258.75 224.86 1260.76 224.279 1262.44 223.377C1264.12 222.474 1265.47 221.249 1266.51 219.701C1267.54 218.024 1268.06 215.703 1268.06 212.737C1268.06 210.286 1267.47 208.352 1266.31 206.933C1265.28 205.514 1263.92 204.418 1262.24 203.644C1260.56 202.87 1258.69 202.419 1256.62 202.29C1254.55 202.032 1252.55 201.903 1250.61 201.903H1234.72V225.311H1249.45ZM1234.72 270.773H1221.54V190.683H1251.97C1261.66 190.683 1268.96 192.488 1273.87 196.1C1278.78 199.711 1281.24 205.579 1281.24 213.704C1281.24 220.926 1279.23 226.214 1275.23 229.567C1271.22 232.92 1266.25 234.919 1260.3 235.564L1282.79 270.773H1267.86L1247.12 236.531H1234.72V270.773Z" fill="white"/>
</g>
</svg>
