<svg width="28" height="28" viewBox="0 0 28 28" fill="none" xmlns="http://www.w3.org/2000/svg">
    <path fill-rule="evenodd" clip-rule="evenodd" d="M19.4894 2.93532C18.0614 2.87242 17.6262 2.85712 13.9984 2.85712C10.3536 2.85712 9.93544 2.87412 8.49384 2.95062C7.17464 2.99652 6.46234 3.22942 5.96594 3.41472C5.3796 3.62927 4.84951 3.97394 4.41554 4.42282C3.96153 4.86222 3.61182 5.39782 3.39214 5.99022C3.20514 6.46962 2.98754 7.18362 2.92634 8.51642C2.84814 9.94442 2.84814 10.3779 2.84814 14.0074C2.84814 17.6352 2.86514 18.0704 2.92634 19.4967C2.93314 20.3637 3.09124 21.2239 3.39214 22.0382C3.63864 22.6587 3.93444 23.1245 4.41554 23.5903C4.89494 24.0697 5.33014 24.3655 5.97954 24.6137C6.78534 24.9129 7.63534 25.0693 8.49384 25.0778C9.93544 25.156 10.3689 25.156 13.9984 25.156C17.6262 25.156 18.0614 25.139 19.4894 25.0778C20.8222 25.0166 21.5345 24.799 22.0156 24.6137C22.6514 24.3655 23.1172 24.0544 23.5813 23.5903C24.0624 23.1092 24.3412 22.6587 24.6047 22.0229C24.9056 21.2137 25.0637 20.3586 25.0705 19.4967C25.1334 18.0687 25.1487 17.6352 25.1487 14.0057C25.1487 10.3779 25.1317 9.94272 25.0552 8.51642C25.0093 7.18362 24.7764 6.46962 24.5894 5.97492C24.3751 5.38797 24.0304 4.85729 23.5813 4.42282C23.1388 3.97426 22.6056 3.62535 22.0173 3.39942C21.5345 3.21242 20.8239 2.99652 19.4894 2.93532ZM8.38334 0.483921C9.84024 0.422721 10.306 0.407421 13.9967 0.407421C15.8667 0.383621 17.7401 0.409121 19.6101 0.483921C20.7389 0.507721 21.8558 0.721921 22.9132 1.11972C23.8176 1.46373 24.6375 1.99829 25.317 2.68712C26.014 3.36202 26.5546 4.18312 26.898 5.09092C27.289 6.14832 27.4998 7.26522 27.5185 8.39232C27.5984 9.85092 27.5984 10.2997 27.5984 14.0074C27.5984 17.6964 27.5814 18.1622 27.5202 19.6038C27.459 21.0624 27.2261 22.0552 26.8844 22.9069C26.5444 23.8079 26.0786 24.5661 25.3204 25.326C24.6429 26.0181 23.8217 26.5531 22.9149 26.8934C22.0479 27.2181 21.0534 27.4663 19.6118 27.5292C18.1549 27.5904 17.7044 27.6057 13.9984 27.6057C10.3077 27.6057 9.84194 27.5904 8.38504 27.5122C6.94174 27.4663 5.95064 27.2334 5.08194 26.8934C4.1818 26.5411 3.36362 26.0076 2.67814 25.326C1.98901 24.6381 1.4506 23.8142 1.09714 22.9069C0.786038 22.0399 0.537838 21.0624 0.476638 19.6038C0.413738 18.1639 0.398438 17.6828 0.398438 14.0057C0.398438 10.332 0.398438 9.86622 0.491938 8.39232C0.537838 6.95072 0.770738 5.95792 1.11244 5.09092C1.47536 4.19707 2.00628 3.38108 2.67644 2.68712C3.36202 2.00153 4.18064 1.4635 5.08194 1.10612C5.94894 0.795021 6.94004 0.545121 8.38334 0.483921ZM9.10924 8.65412C9.75462 7.99448 10.5244 7.46939 11.3741 7.10926C12.2238 6.74912 13.1364 6.56109 14.0593 6.55605C14.9821 6.55101 15.8968 6.72905 16.7503 7.07988C17.6039 7.43071 18.3794 7.94735 19.032 8.5999C19.6845 9.25245 20.2012 10.028 20.552 10.8815C20.9028 11.7351 21.0809 12.6497 21.0758 13.5726C21.0708 14.4954 20.8827 15.4081 20.5226 16.2578C20.1625 17.1074 19.6374 17.8772 18.9777 18.5226C17.6642 19.8077 15.8969 20.5229 14.0593 20.5128C12.2217 20.5028 10.4623 19.7684 9.16287 18.469C7.86349 17.1696 7.12906 15.4102 7.11902 13.5726C7.10898 11.735 7.82413 9.96762 9.10924 8.65412ZM12.3086 17.7848C13.42 18.2452 14.6688 18.2451 15.7801 17.7848C16.8915 17.3244 17.7745 16.4414 18.2348 15.33C18.6952 14.2186 18.6952 12.9699 18.2348 11.8585C17.7744 10.7471 16.8914 9.86416 15.78 9.40382C14.6686 8.94348 13.4199 8.9435 12.3085 9.40386C11.1972 9.86423 10.3142 10.7472 9.85384 11.8586C9.3935 12.97 9.39352 14.2187 9.85388 15.3301C10.3142 16.4415 11.1972 17.3245 12.3086 17.7848ZM22.376 7.68342C22.2248 7.83467 22.0452 7.95465 21.8476 8.0365C21.65 8.11836 21.4382 8.16049 21.2243 8.16049C21.0104 8.16049 20.7986 8.11836 20.601 8.0365C20.4033 7.95465 20.2238 7.83467 20.0725 7.68342C19.9213 7.53217 19.8013 7.35261 19.7195 7.15499C19.6376 6.95738 19.5955 6.74557 19.5955 6.53167C19.5955 6.31777 19.6376 6.10597 19.7195 5.90835C19.8013 5.71073 19.9213 5.53117 20.0725 5.37992C20.378 5.07446 20.7923 4.90285 21.2243 4.90285C21.6563 4.90285 22.0706 5.07446 22.376 5.37992C22.6815 5.68538 22.8531 6.09968 22.8531 6.53167C22.8531 6.96366 22.6815 7.37796 22.376 7.68342Z" fill="#262626"/>
</svg>
