<svg width="47" height="60" viewBox="0 0 47 60" fill="none" xmlns="http://www.w3.org/2000/svg">
    <path d="M0.379883 54.8925V0.797852H10.8116V33.3975L22.8979 17.6674H33.9777L20.3081 34.6076L35.0565 54.8933H23.2581L10.8116 37.3127V54.8933H0.379883V54.8925Z" fill="white"/>
    <path d="M45.4383 54.6875C45.4383 54.1472 45.3496 53.6504 45.1731 53.1971C44.9966 52.7438 44.751 52.3541 44.4379 52.0289C44.1249 51.7029 43.7593 51.4529 43.3411 51.2775C42.9237 51.0943 42.4734 51.0035 41.9909 51.0035C41.5005 51.0035 41.0423 51.0951 40.6171 51.2775C40.1989 51.4522 39.8333 51.7029 39.5202 52.0289C39.2072 52.3549 38.9616 52.7446 38.7851 53.1971C38.6086 53.6504 38.5199 54.1472 38.5199 54.6875C38.5199 55.1959 38.5999 55.6732 38.7608 56.118C38.9216 56.5636 39.1507 56.9525 39.4481 57.287C39.7533 57.6208 40.1189 57.887 40.5449 58.0857C40.9709 58.2767 41.4526 58.3722 41.9909 58.3722C42.4734 58.3722 42.9229 58.2844 43.3411 58.1098C43.7593 57.9274 44.1249 57.6728 44.4379 57.3468C44.751 57.0208 44.9966 56.635 45.1731 56.1902C45.3504 55.7369 45.4383 55.2362 45.4383 54.6875ZM46.4025 54.6875C46.4025 55.355 46.2825 55.9636 46.0408 56.5116C45.8078 57.0603 45.4861 57.5292 45.0766 57.9188C44.6749 58.3085 44.2049 58.6105 43.6667 58.8255C43.1363 59.0397 42.5777 59.1476 41.9917 59.1476C41.3405 59.1476 40.7418 59.0366 40.1958 58.8138C39.6575 58.5833 39.1915 58.2689 38.7976 57.8715C38.4116 57.4741 38.1064 57.0052 37.8813 56.4642C37.6639 55.9154 37.5557 55.3232 37.5557 54.6875C37.5557 54.0199 37.6718 53.4113 37.9048 52.8633C38.1457 52.3146 38.4673 51.8457 38.869 51.4561C39.2786 51.0664 39.7533 50.7644 40.2915 50.5494C40.8297 50.3352 41.3962 50.2273 41.9909 50.2273C42.5777 50.2273 43.1356 50.3344 43.6659 50.5494C44.2041 50.7644 44.6741 51.0664 45.0758 51.4561C45.4854 51.8457 45.807 52.3146 46.0401 52.8633C46.2825 53.4113 46.4025 54.0199 46.4025 54.6875ZM42.016 54.4367C42.1682 54.4367 42.3133 54.4329 42.4498 54.4251C42.5942 54.4096 42.7189 54.3731 42.8233 54.318C42.9276 54.2621 43.0116 54.1868 43.0759 54.0913C43.1403 53.9881 43.1724 53.8452 43.1724 53.6621C43.1724 53.5107 43.1363 53.3919 43.0642 53.3042C42.9998 53.2165 42.9151 53.149 42.8107 53.1016C42.7064 53.0543 42.5895 53.0263 42.4616 53.0178C42.3329 53.0023 42.2082 52.9937 42.0882 52.9937H41.0996V54.4367H42.016ZM41.0996 57.2389H40.2797V52.3021H42.1721C42.7747 52.3021 43.2289 52.4131 43.5341 52.6359C43.8393 52.8587 43.9923 53.2204 43.9923 53.7211C43.9923 54.1666 43.8676 54.4918 43.6189 54.6991C43.3694 54.9056 43.0602 55.029 42.6907 55.0686L44.0888 57.2389H43.1607L41.8708 55.1283H41.0996V57.2389Z" fill="white"/>
</svg>
